<?xml version="1.0" standalone="no"?>
<!DOCTYPE svg PUBLIC "-//W3C//DTD SVG 20010904//EN"
 "http://www.w3.org/TR/2001/REC-SVG-20010904/DTD/svg10.dtd">
<svg version="1.0" xmlns="http://www.w3.org/2000/svg"
 width="263.000000pt" height="166.000000pt" viewBox="0 0 263.000000 166.000000"
 preserveAspectRatio="xMidYMid meet">
<metadata>
Created by potrace 1.15, written by Peter Selinger 2001-2017
</metadata>
<g transform="translate(0.000000,166.000000) scale(0.100000,-0.100000)"
fill="#000000" stroke="none">
<path d="M1987 1640 c-46 -37 -35 -94 22 -110 20 -5 43 -14 51 -20 13 -8 13
-11 -1 -25 -18 -19 -39 -21 -92 -10 -37 7 -39 6 -35 -16 3 -22 8 -24 63 -27
70 -4 100 10 114 50 14 40 0 63 -46 79 -54 17 -66 28 -51 46 9 12 26 14 66 10
50 -5 53 -5 50 16 -3 19 -10 22 -59 25 -44 2 -61 -1 -82 -18z"/>
<path d="M1330 819 c-696 -412 -1280 -759 -1297 -769 -22 -13 -31 -24 -27 -35
3 -8 10 -15 16 -15 8 0 2568 1511 2595 1532 14 11 6 38 -11 37 -6 0 -580 -338
-1276 -750z"/>
</g>
</svg>
