<svg
    xmlns="http://www.w3.org/2000/svg"
    viewBox="0 0 700 356"
    id="vector">
    <path
        id="path"
        d="M 30.8 2.6 C 17.3 5.8 5.7 17.5 2.6 31 C 1.8 34.3 1.5 37 2 37 C 2.4 37 3.8 34.1 5.1 30.5 C 9.3 18.5 19 8.9 30.8 4.9 C 34.2 3.8 37 2.4 37 1.9 C 37 1.4 36.9 1 36.8 1.1 C 36.6 1.1 33.9 1.8 30.8 2.6 Z"
        fill="#000000"
        stroke="#00000000"/>
    <path
        id="path_1"
        d="M 663.2 2.2 C 663.4 2.8 665.4 3.8 667.6 4.5 C 681.3 8.6 691.4 18.6 695.6 32.2 C 697.4 38 699.6 40.4 698.4 35.2 C 696.5 26.7 695.5 24.1 692 18.9 C 688.3 13.6 684.2 9.7 677.8 5.7 C 674.2 3.5 662.7 0.7 663.2 2.2 Z"
        fill="#000000"
        stroke="#00000000"/>
    <path
        id="path_2"
        d="M 299.6 74.2 C 294.1 79.1 281.2 104.9 274.7 124 C 258.8 170.6 266.4 221.4 296.4 268.8 C 299.6 273.9 302.1 275 310.5 275 C 316.2 275 316.9 274.7 318.5 272.4 C 320.2 269.8 320.1 269.6 314.2 257.6 C 298 224.9 291.9 196.9 293.4 163.5 C 294.6 139.3 300.5 117.2 312.5 92.3 C 318.5 79.8 320.1 74.5 316.3 79.5 C 313.9 82.8 304.4 103 302 110 C 300.8 113.6 299.4 117.4 299 118.5 C 297.3 122.7 294.1 134.7 293.5 139.5 C 293.1 142.2 292.4 145.9 291.9 147.6 C 290.5 152.3 290.6 191.8 292 199.8 C 294.2 211.7 299.6 231 303 239.5 C 305.8 246.5 313.3 262 316.6 267.7 C 319.4 272.5 317.9 273.4 308.6 272.5 C 301.1 271.8 300.9 271.8 299 268.2 C 297.9 266.1 295.9 262.7 294.6 260.5 C 288.1 250 278.9 229.7 275.9 219 C 270.7 201.2 269.7 193.7 269.6 173 C 269.5 160 269.9 151 270.7 148.5 C 271.3 146.3 272.4 141.8 273 138.5 C 274.2 132.6 275.4 128.4 277.1 124.5 C 277.5 123.4 278.6 120.4 279.4 117.9 C 282.5 108.2 298.2 77.7 301.5 75 C 302.4 74.3 305.7 74 310.4 74.2 C 316.3 74.4 317.6 74.2 316.8 73.2 C 316.2 72.5 313.2 72 308.9 72 C 303.3 72 301.7 72.4 299.6 74.2 Z"
        fill="#000000"
        stroke="#00000000"/>
    <path
        id="path_3"
        d="M 512.2 73.2 C 511.4 74.2 512.8 74.4 519 74.2 L 526.9 73.9 L 530.4 78.7 C 538 89.1 550.6 117.2 554.9 133.6 C 561 156.5 561.8 179.1 557.4 202 C 553.6 222.2 544.3 245.3 532.3 265 L 528.3 271.5 L 520.7 271.8 C 514.9 272 512.8 271.7 512.4 270.7 C 512.2 270 513.9 265.8 516.3 261.4 C 520.8 253.4 530 231.5 530 228.9 C 530 228.1 530.4 227 530.9 226.5 C 532 225.3 533.7 218.4 535.6 207.5 C 536.3 203.1 537.4 197 538 193.9 C 539.3 186.9 539.3 157.5 538 151.8 C 537.5 149.4 536.4 143.9 535.5 139.5 C 531.5 120.1 527.3 107.6 519.1 91 C 513.5 79.7 511.4 76.3 510.4 77.3 C 510.1 77.6 512.5 83.4 515.8 90.2 C 523.3 105.4 528 118.7 532.2 135.5 C 535.4 148.3 535.4 148.9 535.5 172 C 535.5 192.6 535.2 196.9 533.2 206.7 C 530.2 221.7 524.3 238.6 516.3 255.1 C 512.7 262.6 510 269.6 510.2 270.6 C 510.8 273.7 514.9 275.1 521.9 274.7 C 527.9 274.4 528.5 274.1 531.6 270.6 C 536.1 265.4 547.9 241.8 553 228 C 559.6 209.9 562 195.3 562 172.9 C 562 152.2 560.6 142.6 554.9 125 C 551.3 113.7 541.8 92.7 536.1 83 C 530.4 73.4 528.3 72 520 72 C 515.8 72 512.8 72.5 512.2 73.2 Z"
        fill="#000000"
        stroke="#00000000"/>
    <path
        id="path_4"
        d="M 225.7 85 C 214.9 87.7 205.9 96.5 201.2 108.8 C 198.4 115.9 194 135.1 194 139.8 C 194 143.5 190.3 145 181.4 145 C 171.9 145 168 147 168 152 C 168 156.2 170.4 157.4 180.4 158.5 L 189.5 159.5 L 189.2 163.5 C 188.9 167.4 188.1 171.7 180.4 213.5 C 170.2 268.9 168.1 275.4 159.6 277.6 C 156.8 278.3 156.7 278.2 157.4 275.4 C 159.2 268.6 159.2 264.2 157.5 261.7 C 153.6 255.6 143.1 255.4 137.2 261.3 C 134.2 264.3 133.6 265.7 133.2 270.4 C 132.9 273.7 133.3 277.2 134 279 C 138.6 290 158 294.5 170.9 287.4 C 188.5 277.9 196.2 260.5 204.4 211.8 C 208.8 186.2 213 163.5 213.9 161.4 C 214.8 159.5 215.9 159.2 227.2 158.5 C 240.9 157.7 244 156.3 244 150.9 C 244 146.2 241 145 229.4 145 C 222 145 218.9 144.6 218.1 143.6 C 217.2 142.6 217.7 138.1 220 124.9 C 223.7 104.1 224.4 101.6 227.7 99 C 230.2 97.1 235 96.3 236.3 97.6 C 236.6 98 236.3 99.5 235.5 101.1 C 233 105.9 233.6 111.7 236.9 115.1 C 239.3 117.5 240.7 118 244.6 118 C 250.9 118 255.7 114.9 258.2 109.2 C 262 100.6 257.9 91 248.5 86.9 C 243.7 84.8 230.9 83.7 225.7 85 Z M 247.5 89.4 C 253.6 92.2 255.5 94.3 256.9 99.6 C 258.9 107.2 253.7 114.8 245.8 115.7 C 239.5 116.4 236 113.5 236 107.5 C 236 103.8 236.6 102.5 239.4 99.6 C 243.7 95.4 242.7 94 235.2 94 C 225.6 94 221.6 99.1 219.1 114.5 C 217.7 123.3 214.2 143.3 213.8 145 C 213.6 146.3 215.6 146.6 226.7 147 C 241.3 147.6 243 148.2 241.4 152.7 L 240.5 155.5 L 226 156 L 211.5 156.5 L 210.3 163.5 C 209.6 167.3 208.4 174.9 207.5 180.4 C 206.7 185.8 205.8 190.6 205.5 190.9 C 205.1 191.6 203.3 201.6 200 222 C 198 234.3 195.5 245.3 194.1 248.5 C 193.6 249.6 192.2 253.7 191 257.7 C 187.2 270.2 179 280.4 168.1 286 C 165 287.7 162.3 288.2 157.2 288.2 C 148.8 288.1 142.6 285.6 138.1 280.5 C 135 276.9 134.8 276.3 135.3 271.2 C 135.9 265.2 137.8 262.4 142.7 260.4 C 147.8 258.2 150.8 258.7 154.2 262 C 156.8 264.7 157.1 265.5 156.5 268.8 C 156.1 270.9 154.5 273.9 152.7 275.7 C 151 277.5 149.9 279.3 150.3 279.7 C 150.7 280 153.4 280.5 156.4 280.8 C 161.8 281.2 161.9 281.2 166.4 276.5 C 171.4 271.4 173.2 266.9 175.6 253.5 C 176.3 249.1 177.9 240.8 179 235 C 180.2 229.2 181.7 221.1 182.5 217 C 183.2 212.9 184.8 204.5 185.9 198.5 C 188.6 184.3 192.3 162.2 192.4 159 C 192.5 156.5 192.5 156.5 181.5 156 L 170.5 155.5 L 170.2 152.6 C 170 151 170.3 149.3 170.9 148.7 C 171.5 148.1 177.3 147.3 183.7 147 L 195.3 146.5 L 197.6 133.5 C 202.3 106.5 207.5 96.4 220.4 89.6 C 227.2 86 240.1 85.9 247.5 89.4 Z"
        fill="#000000"
        stroke="#00000000"/>
    <path
        id="path_5"
        d="M 381.7 145.4 C 367.6 151.3 354 166.8 354 177 C 354 181.3 356.4 184 360.2 184 C 363.2 184 364.9 182.2 368.4 175 C 371.6 168.5 377.7 161.9 383.9 158.2 C 390 154.6 399.7 154.4 403.3 157.8 C 408.2 162.4 407.9 167.5 400.9 195.5 C 398.7 204.3 396 214.3 394.9 217.7 C 391.4 228.4 383.7 235 374.7 235 C 371.1 235 370.6 233.6 373 229.8 C 376.6 223.8 374.9 215.6 369.5 213.2 C 359.6 208.7 349 216.2 349 227.8 C 349 240.1 358 246.9 374.1 247 C 384.6 247 387.9 246 395.3 240.4 C 398.4 238 401.3 236 401.6 236 C 401.9 236 404.2 237.8 406.8 240 C 413 245.5 419.5 247.3 431.8 246.8 C 440.2 246.5 442.3 246.1 447.5 243.5 C 458.2 238.2 470.4 223.9 472.4 214.4 C 472.9 212.1 472.5 210.7 471 208.7 C 467.4 204.1 461.5 205.8 459 212.2 C 454.6 223 445.1 231.9 435.4 234.1 C 423.9 236.7 418.3 232 419.4 220.6 C 420 214.2 426.6 186.3 430.5 173.5 C 432.4 167.3 433.8 164.7 436.7 161.8 C 445.2 153.5 457.8 152.4 452.9 160.4 C 450 165.2 450.4 171.3 453.9 175.2 C 456.5 178.1 457.5 178.5 461.8 178.5 C 467.5 178.5 471.1 176.4 474.8 171 C 477.4 167.1 477.8 159.4 475.6 155.1 C 471.8 147.8 462 143 450.9 143 C 442.9 143 435.9 145.6 429.9 150.6 C 427.1 153 424.6 155 424.3 155 C 424 155 421.9 153.4 419.7 151.4 C 413.3 145.6 407.9 143.7 397 143.3 C 388.7 143 386.8 143.2 381.7 145.4 Z M 410.7 148.5 C 413.5 149.8 417.6 152.6 419.8 154.9 C 422 157.2 424 159 424.4 159 C 424.7 159 426.7 157.2 428.7 154.9 C 435.5 147.3 445.4 144.2 456.7 146 C 467.9 147.8 475 154.2 475 162.5 C 475 167.6 471.4 173.1 466.5 175.5 C 463.2 177 462.4 177 459.1 175.8 C 452 173.1 451.2 164.8 457.6 158.5 L 461.1 155 L 458.5 154 C 457 153.4 453 153 449.5 153 C 443.4 153 442.8 153.2 437.9 157.2 C 435 159.6 431.9 163.1 430.9 165 C 429.1 168.4 424.7 182.6 423 190.5 C 422.5 192.7 421.1 198.5 420 203.5 C 417.3 214.8 416 224.7 416.7 228.3 C 417.6 232.6 422.2 237 426.2 237.1 C 436.3 237.6 441.1 236.2 448.5 230.9 C 452.9 227.7 460.1 217.8 461.5 213 C 461.9 211.6 462.7 209.9 463.2 209.2 C 464.8 207.3 468.8 207.8 470 210.1 C 471.8 213.4 465.3 225.5 457.6 232.8 C 446.7 243.3 436.6 246.4 421.2 243.9 C 413.9 242.7 413.3 242.4 407.6 236.8 C 404.3 233.6 401.4 231 401.2 231 C 400.9 231 399 233 396.9 235.4 C 390.9 242.2 385.5 244.3 374.6 244.4 C 363.5 244.4 357.2 241.8 353.2 235.6 C 348.5 228 352 217.3 360.1 214.9 C 371.5 211.4 377 222.9 368.2 231.7 C 363.9 236.1 364.9 237 374.2 237 C 382 237 385.4 235.9 389.3 232.2 C 395.6 226.3 397.3 221.7 404.1 193 C 405.8 186.1 407.5 179.1 408.1 177.4 C 408.6 175.7 409 170.9 409 166.8 C 409 159.4 408.9 159.1 405.5 156.1 C 402.3 153.3 401.3 153 395.3 153 C 390.5 153 387.4 153.6 384.1 155.2 C 377.9 158.1 368.9 167.4 366.2 173.5 C 362.8 181.2 362.5 181.5 359.4 181.5 C 349.3 181.5 363.4 158 378.4 149.7 C 387.6 144.6 400.9 144.1 410.7 148.5 Z"
        fill="#000000"
        stroke="#00000000"/>
    <path
        id="path_6"
        d="M 1.6 320.7 C 1.9 322.2 2.6 325.1 3.1 327.1 C 5.9 338.4 17.6 350.1 28.7 352.9 C 36.6 354.8 38 355 38 354.1 C 38 353.6 35.6 352.4 32.8 351.4 C 24.9 348.9 22.1 347.2 16.3 341.7 C 9.9 335.6 7.3 331.6 5 324.2 C 3.2 318.3 0.4 315.4 1.6 320.7 Z"
        fill="#000000"
        stroke="#00000000"/>
    <path
        id="path_7"
        d="M 695.5 323.2 C 692.9 331.2 689.7 336.1 683.1 342.3 C 677.6 347.3 668.7 352 664.6 352 C 663.8 352 662.7 352.7 662 353.5 C 660.9 354.8 661.2 354.9 664.1 354.4 C 675 352.5 680 350.1 686.8 343.6 C 692.1 338.6 695.5 332.5 697.5 325 C 699.3 318.2 699.3 318 698.1 318 C 697.6 318 696.4 320.4 695.5 323.2 Z"
        fill="#000000"
        stroke="#00000000"/>
</svg>
